<svg width="35" height="52" viewBox="0 0 35 52" fill="none" xmlns="http://www.w3.org/2000/svg">
<path d="M33.864 34.16C33.992 34.992 34.056 35.824 34.056 36.656C34.056 38.384 33.672 40.24 32.904 42.224C32.136 44.208 30.76 46 28.776 47.6C27.688 48.432 26.184 49.232 24.264 50C22.344 50.768 19.944 51.152 17.064 51.152C14.888 51.152 12.456 50.864 9.768 50.288C7.08 49.776 4.04 48.784 0.648 47.312L4.296 38.384C6.92 39.472 9.256 40.272 11.304 40.784C13.352 41.232 14.792 41.488 15.624 41.552C16.456 41.552 16.936 41.552 17.064 41.552C18.408 41.552 19.56 41.424 20.52 41.168C21.48 40.848 22.248 40.464 22.824 40.016C23.528 39.44 23.944 38.864 24.072 38.288C24.264 37.648 24.36 37.104 24.36 36.656C24.36 36.336 24.328 35.984 24.264 35.6C24.136 34.512 23.4 33.584 22.056 32.816C20.712 31.984 18.728 31.152 16.104 30.32C14.824 29.936 13.384 29.456 11.784 28.88C10.248 28.24 8.744 27.44 7.272 26.48C5.8 25.52 4.488 24.304 3.336 22.832C2.248 21.296 1.544 19.472 1.224 17.36C1.096 16.464 1.032 15.6 1.032 14.768C1.032 13.04 1.416 11.216 2.184 9.296C2.952 7.312 4.328 5.52 6.312 3.92C7.208 3.152 8.392 2.416 9.864 1.712C11.4 1.008 12.904 0.591999 14.376 0.463997C15.912 0.271996 17.128 0.175995 18.024 0.175995C19.688 0.175995 21.768 0.367996 24.264 0.751999C26.824 1.136 30.12 2.128 34.152 3.728L30.6 12.752C25.928 10.832 22.792 9.872 21.192 9.872C19.656 9.808 18.856 9.776 18.792 9.776C15.848 9.776 13.704 10.32 12.36 11.408C11.656 11.92 11.176 12.496 10.92 13.136C10.664 13.712 10.536 14.32 10.536 14.96C10.536 15.216 10.568 15.504 10.632 15.824C10.824 16.912 11.592 17.872 12.936 18.704C14.28 19.472 16.296 20.272 18.984 21.104C20.2 21.488 21.608 22 23.208 22.64C24.808 23.216 26.312 24.016 27.72 25.04C29.192 26 30.472 27.216 31.56 28.688C32.712 30.16 33.48 31.984 33.864 34.16Z" fill="#7B2D26"/>
</svg>
