<svg width="241" height="52" viewBox="0 0 241 52" fill="none" xmlns="http://www.w3.org/2000/svg">
<path d="M33.864 34.16C33.992 34.992 34.056 35.824 34.056 36.656C34.056 38.384 33.672 40.24 32.904 42.224C32.136 44.208 30.76 46 28.776 47.6C27.688 48.432 26.184 49.232 24.264 50C22.344 50.768 19.944 51.152 17.064 51.152C14.888 51.152 12.456 50.864 9.768 50.288C7.08 49.776 4.04 48.784 0.648 47.312L4.296 38.384C6.92 39.472 9.256 40.272 11.304 40.784C13.352 41.232 14.792 41.488 15.624 41.552C16.456 41.552 16.936 41.552 17.064 41.552C18.408 41.552 19.56 41.424 20.52 41.168C21.48 40.848 22.248 40.464 22.824 40.016C23.528 39.44 23.944 38.864 24.072 38.288C24.264 37.648 24.36 37.104 24.36 36.656C24.36 36.336 24.328 35.984 24.264 35.6C24.136 34.512 23.4 33.584 22.056 32.816C20.712 31.984 18.728 31.152 16.104 30.32C14.824 29.936 13.384 29.456 11.784 28.88C10.248 28.24 8.744 27.44 7.272 26.48C5.8 25.52 4.488 24.304 3.336 22.832C2.248 21.296 1.544 19.472 1.224 17.36C1.096 16.464 1.032 15.6 1.032 14.768C1.032 13.04 1.416 11.216 2.184 9.296C2.952 7.312 4.328 5.52 6.312 3.92C7.208 3.152 8.392 2.416 9.864 1.712C11.4 1.008 12.904 0.591999 14.376 0.463997C15.912 0.271996 17.128 0.175995 18.024 0.175995C19.688 0.175995 21.768 0.367996 24.264 0.751999C26.824 1.136 30.12 2.128 34.152 3.728L30.6 12.752C25.928 10.832 22.792 9.872 21.192 9.872C19.656 9.808 18.856 9.776 18.792 9.776C15.848 9.776 13.704 10.32 12.36 11.408C11.656 11.92 11.176 12.496 10.92 13.136C10.664 13.712 10.536 14.32 10.536 14.96C10.536 15.216 10.568 15.504 10.632 15.824C10.824 16.912 11.592 17.872 12.936 18.704C14.28 19.472 16.296 20.272 18.984 21.104C20.2 21.488 21.608 22 23.208 22.64C24.808 23.216 26.312 24.016 27.72 25.04C29.192 26 30.472 27.216 31.56 28.688C32.712 30.16 33.48 31.984 33.864 34.16ZM50.451 28.304C50.707 30.224 51.283 31.984 52.179 33.584C53.075 35.184 54.195 36.592 55.539 37.808C56.883 38.96 58.387 39.888 60.051 40.592C61.779 41.232 63.571 41.552 65.427 41.552C69.523 41.552 72.755 40.784 75.123 39.248C77.555 37.712 79.507 35.152 80.979 31.568L89.811 35.504C87.571 40.752 84.467 44.688 80.499 47.312C76.595 49.872 71.571 51.152 65.427 51.152C62.035 51.152 58.803 50.48 55.731 49.136C52.723 47.792 50.099 45.968 47.859 43.664C45.619 41.36 43.827 38.672 42.483 35.6C41.203 32.464 40.563 29.136 40.563 25.616C40.563 22.096 41.203 18.8 42.483 15.728C43.827 12.656 45.619 9.968 47.859 7.664C50.099 5.36 52.723 3.536 55.731 2.192C58.803 0.847996 62.035 0.175995 65.427 0.175995C68.883 0.175995 72.115 0.847996 75.123 2.192C78.195 3.536 80.851 5.36 83.091 7.664C85.331 9.968 87.091 12.656 88.371 15.728C89.715 18.8 90.387 22.096 90.387 25.616C90.387 26.064 90.355 26.512 90.291 26.96C90.291 27.408 90.291 27.856 90.291 28.304H50.451ZM80.019 21.392C79.571 19.728 78.867 18.192 77.907 16.784C77.011 15.376 75.923 14.16 74.643 13.136C73.427 12.112 72.019 11.312 70.419 10.736C68.883 10.096 67.219 9.776 65.427 9.776C63.699 9.776 62.035 10.096 60.435 10.736C58.835 11.312 57.395 12.112 56.115 13.136C54.899 14.16 53.811 15.376 52.851 16.784C51.955 18.192 51.315 19.728 50.931 21.392H80.019ZM137.261 1.328H146.957V50H137.261V43.952C135.149 46.192 132.653 47.952 129.773 49.232C126.893 50.512 123.757 51.152 120.365 51.152C116.973 51.152 113.741 50.48 110.669 49.136C107.661 47.792 105.037 45.968 102.797 43.664C100.557 41.36 98.7645 38.672 97.4205 35.6C96.1405 32.464 95.5005 29.136 95.5005 25.616C95.5005 22.096 96.1405 18.8 97.4205 15.728C98.7645 12.656 100.557 9.968 102.797 7.664C105.037 5.36 107.661 3.536 110.669 2.192C113.741 0.847996 116.973 0.175995 120.365 0.175995C123.757 0.175995 126.893 0.815996 129.773 2.096C132.653 3.376 135.149 5.136 137.261 7.376V1.328ZM120.365 41.552C122.477 41.552 124.461 41.136 126.317 40.304C128.173 39.472 129.773 38.352 131.117 36.944C132.525 35.472 133.613 33.776 134.381 31.856C135.213 29.936 135.629 27.856 135.629 25.616C135.629 23.44 135.213 21.392 134.381 19.472C133.613 17.552 132.525 15.888 131.117 14.48C129.773 13.008 128.173 11.856 126.317 11.024C124.461 10.192 122.477 9.776 120.365 9.776C118.253 9.776 116.269 10.192 114.413 11.024C112.621 11.856 111.021 13.008 109.613 14.48C108.205 15.888 107.085 17.552 106.253 19.472C105.485 21.392 105.101 23.44 105.101 25.616C105.101 27.856 105.485 29.936 106.253 31.856C107.085 33.776 108.205 35.472 109.613 36.944C111.021 38.352 112.621 39.472 114.413 40.304C116.269 41.136 118.253 41.552 120.365 41.552ZM218.986 0.175995C221.994 0.175995 224.81 0.719995 227.434 1.808C230.122 2.832 232.426 4.304 234.346 6.224C236.266 8.08 237.77 10.288 238.858 12.848C239.946 15.344 240.49 18.064 240.49 21.008V50H230.89V24.272C230.89 21.904 230.474 19.824 229.642 18.032C228.874 16.24 227.85 14.736 226.57 13.52C225.29 12.304 223.818 11.376 222.154 10.736C220.554 10.096 218.922 9.776 217.258 9.776C215.274 9.776 213.45 10.16 211.786 10.928C210.186 11.696 208.746 12.752 207.466 14.096C206.25 15.376 205.29 16.976 204.586 18.896C203.946 20.752 203.626 22.832 203.626 25.136V50H193.93V24.272C193.93 21.904 193.546 19.824 192.778 18.032C192.01 16.24 190.986 14.736 189.706 13.52C188.426 12.304 186.954 11.376 185.29 10.736C183.69 10.096 182.026 9.776 180.298 9.776C178.378 9.776 176.586 10.16 174.922 10.928C173.258 11.696 171.818 12.784 170.602 14.192C169.386 15.536 168.426 17.136 167.722 18.992C167.082 20.848 166.762 22.928 166.762 25.232V50H157.066V1.424H166.762V7.28C167.594 6.064 168.586 5.04 169.738 4.208C170.954 3.312 172.234 2.576 173.578 2C174.922 1.36 176.298 0.911997 177.706 0.656C179.178 0.335997 180.618 0.175995 182.026 0.175995C184.074 0.175995 186.026 0.431995 187.882 0.943996C189.738 1.392 191.466 2.064 193.066 2.96C194.666 3.792 196.106 4.816 197.386 6.032C198.666 7.248 199.786 8.624 200.746 10.16C201.642 8.496 202.762 7.056 204.106 5.84C205.45 4.56 206.922 3.536 208.522 2.768C210.186 1.936 211.882 1.296 213.61 0.847998C215.402 0.399996 217.194 0.175995 218.986 0.175995Z" fill="#7B2D26"/>
</svg>
